<svg width="42" height="42" viewBox="0 0 42 42" fill="none" xmlns="http://www.w3.org/2000/svg">
<circle cx="21" cy="21" r="20" stroke="#262C59" stroke-width="2"/>
<path d="M25.3359 26.6328L14.8672 16.1641C14.0078 17.4141 13.5 18.8984 13.5 20.5C13.5 24.6406 16.8594 28 21 28C22.6016 28 24.0859 27.4922 25.3359 26.6328ZM27.0938 24.875C27.9531 23.625 28.5 22.1406 28.5 20.5C28.5 16.3594 25.1406 13 21 13C19.3594 13 17.875 13.5469 16.625 14.4062L27.0938 24.875ZM11 20.5C11 16.9453 12.875 13.6641 16 11.8672C19.0859 10.0703 22.875 10.0703 26 11.8672C29.0859 13.6641 31 16.9453 31 20.5C31 24.0938 29.0859 27.375 26 29.1719C22.875 30.9688 19.0859 30.9688 16 29.1719C12.875 27.375 11 24.0938 11 20.5Z" fill="#262C59"/>
</svg>
