<svg width="42" height="42" viewBox="0 0 42 42" fill="none" xmlns="http://www.w3.org/2000/svg">
<circle cx="21" cy="21" r="20" stroke="#202020" stroke-width="2"/>
<path d="M14.75 11.75C14.75 11.0859 15.2969 10.5 16 10.5C16.6641 10.5 17.25 11.0859 17.25 11.75V13H22.25V11.75C22.25 11.0859 22.7969 10.5 23.5 10.5C24.1641 10.5 24.75 11.0859 24.75 11.75V13H26.625C27.6406 13 28.5 13.8594 28.5 14.875V16.75H11V14.875C11 13.8594 11.8203 13 12.875 13H14.75V11.75ZM28.5 18V18.0391C28.2656 18.0391 28.0703 18 27.875 18C24.0469 18 21 21.0859 21 24.875C21 27.2188 22.1328 29.2891 23.8906 30.5H12.875C11.8203 30.5 11 29.6797 11 28.625V18H27.875H28.5ZM33.5 24.875C33.5 26.9062 32.4062 28.7422 30.6875 29.7578C28.9297 30.7734 26.7812 30.7734 25.0625 29.7578C23.3047 28.7422 22.25 26.9062 22.25 24.875C22.25 22.8828 23.3047 21.0469 25.0625 20.0312C26.7812 19.0156 28.9297 19.0156 30.6875 20.0312C32.4062 21.0469 33.5 22.8828 33.5 24.875ZM27.875 21.75C27.5234 21.75 27.25 22.0625 27.25 22.375V24.875C27.25 25.2266 27.5234 25.5 27.875 25.5H29.75C30.0625 25.5 30.375 25.2266 30.375 24.875C30.375 24.5625 30.0625 24.25 29.75 24.25H28.5V22.375C28.5 22.0625 28.1875 21.75 27.875 21.75Z" fill="#202020"/>
</svg>
