<svg width="38" height="37" viewBox="0 0 38 37" fill="none" xmlns="http://www.w3.org/2000/svg">
<path d="M19 36.5C12.5312 36.5 6.625 33.125 3.39062 27.5C0.15625 21.9453 0.15625 15.125 3.39062 9.5C6.625 3.94531 12.5312 0.5 19 0.5C25.3984 0.5 31.3047 3.94531 34.5391 9.5C37.7734 15.125 37.7734 21.9453 34.5391 27.5C31.3047 33.125 25.3984 36.5 19 36.5ZM10 14V14.7031L18.3672 18.5C18.5781 18.5703 18.7891 18.6406 19 18.6406C19.2109 18.6406 19.4219 18.5703 19.5625 18.5L28 14.7031V14C28 12.8047 26.9453 11.75 25.75 11.75H12.25C10.9844 11.75 10 12.8047 10 14ZM20.4766 20.5391C20.0547 20.75 19.4922 20.8906 19 20.8906C18.4375 20.8906 17.9453 20.75 17.4531 20.5391L10 17.1641V23C10 24.2656 10.9844 25.25 12.25 25.25H25.75C26.9453 25.25 28 24.2656 28 23V17.1641L20.4766 20.5391Z" fill="#BDDCD7"/>
</svg>
