<svg width="176" height="23" viewBox="0 0 176 23" fill="none" xmlns="http://www.w3.org/2000/svg">
<path d="M4.2642 19V4.45455H7.33949V10.456H13.5824V4.45455H16.6506V19H13.5824V12.9915H7.33949V19H4.2642ZM23.6932 19H20.3977L25.419 4.45455H29.3821L34.3963 19H31.1009L27.4574 7.77841H27.3438L23.6932 19ZM23.4872 13.2827H31.2713V15.6832H23.4872V13.2827ZM50.3132 4.45455V19H47.657L41.3288 9.84517H41.2223V19H38.147V4.45455H40.8459L47.1243 13.6023H47.2521V4.45455H50.3132ZM67.0202 4.45455V19H64.364L58.0359 9.84517H57.9293V19H54.854V4.45455H57.5529L63.8313 13.6023H63.9592V4.45455H67.0202ZM74.0682 19H70.7727L75.794 4.45455H79.7571L84.7713 19H81.4759L77.8324 7.77841H77.7188L74.0682 19ZM73.8622 13.2827H81.6463V15.6832H73.8622V13.2827Z" fill="#202020"/>
<path d="M100.858 19H96.1488V4.45455H101.007C102.432 4.45455 103.656 4.74574 104.679 5.32812C105.701 5.90578 106.485 6.73674 107.029 7.82102C107.579 8.90057 107.853 10.1955 107.853 11.706C107.853 13.2211 107.576 14.5232 107.022 15.6122C106.473 16.7012 105.678 17.5393 104.636 18.1264C103.594 18.7088 102.335 19 100.858 19ZM98.3434 17.0824H100.737C101.845 17.0824 102.766 16.8741 103.5 16.4574C104.234 16.036 104.783 15.4276 105.147 14.6321C105.512 13.8319 105.694 12.8565 105.694 11.706C105.694 10.5649 105.512 9.59659 105.147 8.80114C104.788 8.00568 104.25 7.40199 103.535 6.99006C102.82 6.57812 101.932 6.37216 100.872 6.37216H98.3434V17.0824ZM121.936 4.45455H124.138V14.0213C124.138 15.0393 123.899 15.9413 123.42 16.7273C122.942 17.5085 122.27 18.1241 121.403 18.5739C120.537 19.0189 119.521 19.2415 118.357 19.2415C117.196 19.2415 116.183 19.0189 115.317 18.5739C114.45 18.1241 113.778 17.5085 113.3 16.7273C112.821 15.9413 112.582 15.0393 112.582 14.0213V4.45455H114.777V13.8438C114.777 14.5019 114.921 15.0866 115.21 15.598C115.504 16.1094 115.918 16.5118 116.453 16.8054C116.988 17.0942 117.623 17.2386 118.357 17.2386C119.095 17.2386 119.732 17.0942 120.267 16.8054C120.807 16.5118 121.219 16.1094 121.503 15.598C121.792 15.0866 121.936 14.5019 121.936 13.8438V4.45455ZM129.328 19V4.45455H131.523V11.4006H131.701L137.801 4.45455H140.564L134.698 11.0028L140.586 19H137.944L133.242 12.5014L131.523 14.4759V19H129.328ZM144.61 19V4.45455H153.729V6.34375H146.804V10.7756H153.253V12.6577H146.804V17.1108H153.814V19H144.61ZM158.661 19V4.45455H163.845C164.972 4.45455 165.907 4.64867 166.651 5.03693C167.399 5.42519 167.957 5.96259 168.327 6.64915C168.696 7.33097 168.881 8.11932 168.881 9.0142C168.881 9.90436 168.694 10.688 168.32 11.3651C167.95 12.0374 167.392 12.5606 166.643 12.9347C165.9 13.3087 164.965 13.4957 163.838 13.4957H159.911V11.6065H163.639C164.349 11.6065 164.927 11.5047 165.372 11.3011C165.822 11.0975 166.151 10.8016 166.359 10.4134C166.568 10.0251 166.672 9.55871 166.672 9.0142C166.672 8.46496 166.565 7.98911 166.352 7.58665C166.144 7.18419 165.815 6.87642 165.365 6.66335C164.92 6.44555 164.335 6.33665 163.611 6.33665H160.855V19H158.661ZM165.841 12.4375L169.435 19H166.935L163.412 12.4375H165.841Z" fill="#202020" fill-opacity="0.8"/>
</svg>
