<svg width="42" height="42" viewBox="0 0 42 42" fill="none" xmlns="http://www.w3.org/2000/svg">
<circle cx="21" cy="21" r="20" stroke="white" stroke-width="2"/>
<path d="M11 19.2891C11 14.4453 14.9062 10.5 19.75 10.5H21C24.7109 10.5 27.7969 13.2344 28.3828 16.7891C28.4609 17.2969 28.6562 17.7656 28.9688 18.1953L30.6094 20.2266C30.8438 20.5391 31 20.9297 31 21.3203C31 22.2578 30.2188 23 29.2812 23H28.5V25.5C28.5 26.9062 27.3672 28 26 28H23.5V29.25C23.5 29.9531 22.9141 30.5 22.25 30.5H14.75C14.0469 30.5 13.5 29.9531 13.5 29.25V26.4375C13.5 25.7734 13.2266 25.1484 12.7969 24.6406C11.625 23.1172 11 21.2422 11 19.2891ZM22.1328 18.625H24.125C25.1406 18.625 26 17.8047 26 16.75C26 15.7344 25.1406 14.875 24.125 14.875C24.0859 14.875 24.0469 14.875 24.0078 14.9141C23.7344 14.1719 23.0312 13.625 22.25 13.625C21.8984 13.625 21.5859 13.7422 21.3125 13.8984C20.9609 13.3516 20.4141 13 19.75 13C19.0859 13 18.5 13.3516 18.1484 13.8984C17.875 13.7422 17.5625 13.625 17.25 13.625C16.1953 13.625 15.375 14.4844 15.375 15.5C14.3203 15.5 13.5 16.3594 13.5 17.375C13.5 18.1953 14.0078 18.8984 14.75 19.1719C14.75 19.2109 14.75 19.25 14.75 19.25C14.75 20.3047 15.5703 21.125 16.625 21.125C16.8203 21.125 17.0547 21.0859 17.25 21.0469V21.75C17.25 22.4531 17.7969 23 18.5 23C19.1641 23 19.75 22.4531 19.75 21.75V21.0469C19.9453 21.125 20.1406 21.125 20.375 21.125C21.3906 21.125 22.25 20.3047 22.25 19.25C22.25 19.0547 22.2109 18.8203 22.1328 18.625ZM17.25 17.375V17.4922H17.2109C17.2109 17.4531 17.25 17.4141 17.25 17.375Z" fill="white"/>
</svg>
