<svg width="42" height="42" viewBox="0 0 42 42" fill="none" xmlns="http://www.w3.org/2000/svg">
<circle cx="21" cy="21" r="20" stroke="white" stroke-width="2"/>
<path d="M26.375 14.5C26.375 16.2578 25.3594 17.7812 23.875 18.6797V19.5C23.875 20.2031 23.2891 20.75 22.625 20.75H18.875C18.1719 20.75 17.625 20.2031 17.625 19.5V18.6797C16.1016 17.7812 15.125 16.2578 15.125 14.5C15.125 11.7656 17.625 9.5 20.75 9.5C23.8359 9.5 26.375 11.7656 26.375 14.5ZM18.5625 16.375C19.2266 16.375 19.8125 15.8281 19.8125 15.125C19.8125 14.4609 19.2266 13.875 18.5625 13.875C17.8594 13.875 17.3125 14.4609 17.3125 15.125C17.3125 15.8281 17.8594 16.375 18.5625 16.375ZM24.1875 15.125C24.1875 14.4609 23.6016 13.875 22.9375 13.875C22.2344 13.875 21.6875 14.4609 21.6875 15.125C21.6875 15.8281 22.2344 16.375 22.9375 16.375C23.6016 16.375 24.1875 15.8281 24.1875 15.125ZM12.1172 20.2031C12.4297 19.5781 13.1719 19.3438 13.7969 19.6562L20.75 23.1328L27.6641 19.6562C28.2891 19.3438 29.0312 19.5781 29.3438 20.2031C29.6562 20.8281 29.4219 21.5703 28.7969 21.8828L23.5234 24.5L28.7969 27.1562C29.4219 27.4688 29.6562 28.2109 29.3438 28.8359C29.0312 29.4609 28.2891 29.6953 27.6641 29.3828L20.75 25.9062L13.7969 29.3828C13.1719 29.6953 12.4297 29.4609 12.1172 28.8359C11.8047 28.2109 12.0391 27.4688 12.6641 27.1562L17.9375 24.5L12.6641 21.8828C12.0391 21.5703 11.8047 20.8281 12.1172 20.2031Z" fill="white"/>
</svg>
