<svg width="42" height="42" viewBox="0 0 42 42" fill="none" xmlns="http://www.w3.org/2000/svg">
<circle cx="21" cy="21" r="20" stroke="white" stroke-width="2"/>
<path d="M15.5703 15.5H19.0859C22.1719 10.3828 26.9766 10.1875 29.8672 10.7344C30.3359 10.8125 30.6875 11.1641 30.7656 11.6328C31.3125 14.5234 31.1172 19.3281 26 22.4141V25.9297C26 26.9062 25.4531 27.8438 24.5938 28.3516L21.1562 30.3828C20.8438 30.5781 20.4922 30.5781 20.2188 30.3828C19.9062 30.2266 19.75 29.9141 19.75 29.5625V25.1094C19.75 24.2109 19.3984 23.3516 18.7734 22.7266C18.1484 22.1016 17.2891 21.75 16.3906 21.75H11.9375C11.5859 21.75 11.2734 21.5938 11.1172 21.2812C10.9219 21.0078 10.9219 20.6562 11.1172 20.3438L13.1484 16.9062C13.6562 16.0469 14.5938 15.5 15.5703 15.5ZM27.5625 15.5C27.5625 14.9531 27.25 14.4453 26.7812 14.1719C26.2734 13.8984 25.6875 13.8984 25.2188 14.1719C24.7109 14.4453 24.4375 14.9531 24.4375 15.5C24.4375 16.0859 24.7109 16.5938 25.2188 16.8672C25.6875 17.1406 26.2734 17.1406 26.7812 16.8672C27.25 16.5938 27.5625 16.0859 27.5625 15.5ZM17.4844 28.8594C16.1562 30.2266 13.5781 30.4609 12.0938 30.5C11.4688 30.5391 10.9609 30.0312 11 29.4062C11.0391 27.9219 11.2734 25.3438 12.6406 24.0156C13.9688 22.6875 16.1562 22.6875 17.4844 24.0156C18.8125 25.3438 18.8125 27.5312 17.4844 28.8594ZM15.6484 27.4531C16.1172 27.0234 16.1172 26.2812 15.6484 25.8516C15.2188 25.3828 14.4766 25.3828 14.0469 25.8516C13.6562 26.2422 13.5391 26.9453 13.5 27.4531C13.5 27.7656 13.7344 28 14.0469 28C14.5547 27.9609 15.2578 27.8438 15.6484 27.4531Z" fill="white"/>
</svg>
