<svg width="42" height="42" viewBox="0 0 42 42" fill="none" xmlns="http://www.w3.org/2000/svg">
<circle cx="21" cy="21" r="20" stroke="white" stroke-width="2"/>
<path d="M19.125 12C19.125 11.3359 19.4766 10.75 20.0625 10.3984C20.6094 10.0469 21.3516 10.0469 21.9375 10.3984C22.4844 10.75 22.875 11.3359 22.875 12C22.875 12.7031 22.4844 13.2891 21.9375 13.6406C21.3516 13.9922 20.6094 13.9922 20.0625 13.6406C19.4766 13.2891 19.125 12.7031 19.125 12ZM11.3516 17.8984C11.5469 17.4297 12.0938 17.1953 12.6016 17.3906L13.3438 17.7031L14.2422 16.2188C14.8672 15.1641 16.0391 14.5 17.2891 14.5C19.2812 14.5 21.0781 15.7891 21.7031 17.7031L23.0312 21.7656L26.1562 23.0547L27.4844 21.2578C27.7188 20.9453 28.1484 20.75 28.5391 20.7891C28.9688 20.7891 29.3203 21.0234 29.5547 21.375L33.3047 27.625C33.5391 28.0156 33.5391 28.4844 33.3047 28.875C33.1094 29.2656 32.6797 29.5 32.25 29.5H22.25C21.7812 29.5 21.3906 29.3047 21.1562 28.9141C20.9609 28.5625 20.9219 28.0938 21.1172 27.7031L21.7422 26.4531C21.9375 26.0234 22.3672 25.75 22.875 25.75H24.125L24.9844 24.5781L11.8594 19.1484C11.3906 18.9531 11.1562 18.4062 11.3516 17.8984ZM14.5938 21.4922L18.9688 23.3672C19.4375 23.5625 19.75 24.0312 19.75 24.5V28.25C19.75 28.9531 19.1641 29.5 18.5 29.5C17.7969 29.5 17.25 28.9531 17.25 28.25V25.3594L14.8672 24.3438L13.4219 28.6797C13.1875 29.3047 12.4844 29.6562 11.8203 29.4609C11.1953 29.2266 10.8438 28.5234 11.0391 27.8594L12.9141 22.2344L13.3438 20.9453L14.5938 21.4922Z" fill="white"/>
</svg>
