<svg width="20" height="20" viewBox="0 0 20 20" fill="none" xmlns="http://www.w3.org/2000/svg">
<path d="M10.875 1.54199V9.04199H18.375C18.9844 9.04199 19.5 9.55762 19.5 10.167C19.5 10.8232 18.9844 11.292 18.375 11.292H10.875V18.792C10.875 19.4482 10.3594 19.917 9.75 19.917C9.09375 19.917 8.625 19.4482 8.625 18.792V11.292H1.125C0.46875 11.292 0 10.8232 0 10.167C0 9.55762 0.46875 9.04199 1.125 9.04199H8.625V1.54199C8.625 0.932617 9.09375 0.416992 9.75 0.416992C10.3594 0.416992 10.875 0.932617 10.875 1.54199Z" fill="#202020"/>
</svg>
